<?xml version="1.0" encoding="utf-8"?>
<!-- Generator: Adobe Illustrator 15.1.0, SVG Export Plug-In . SVG Version: 6.00 Build 0)  -->
<!DOCTYPE svg PUBLIC "-//W3C//DTD SVG 1.1//EN" "http://www.w3.org/Graphics/SVG/1.1/DTD/svg11.dtd">
<svg version="1.1" id="Layer_1" xmlns="http://www.w3.org/2000/svg" xmlns:xlink="http://www.w3.org/1999/xlink" x="0px" y="0px"
	 width="800px" height="149px" viewBox="0 0 800 149" enable-background="new 0 0 800 149" xml:space="preserve">
<path fill-rule="evenodd" clip-rule="evenodd" fill="#1C1C1A" d="M73.631,118.283c25.106,0,42.619-18.085,42.619-44.136
	c0-26.249-17.513-44.144-42.619-44.144c-24.907,0-42.42,17.895-42.42,44.144C31.211,100.198,48.724,118.283,73.631,118.283z
	 M73.631,3.374c39.108,0,70.83,29.744,70.83,70.774c0,41.022-31.722,70.766-70.83,70.766S3,115.169,3,74.147
	C3,33.118,34.523,3.374,73.631,3.374z"/>
<polygon fill-rule="evenodd" clip-rule="evenodd" fill="#1C1C1A" points="500.419,6.09 500.419,31.371 457.61,31.371 
	457.61,142.197 430.566,142.197 430.566,31.371 388.146,31.371 388.146,6.09 "/>
<polygon fill-rule="evenodd" clip-rule="evenodd" fill="#1C1C1A" points="693.862,6.09 693.862,31.371 651.053,31.371 
	651.053,142.197 624.009,142.197 624.009,31.371 581.589,31.371 581.589,6.09 "/>
<path fill-rule="evenodd" clip-rule="evenodd" fill="#1C1C1A" d="M361.54,47.493c-3.114-13.604-14.979-20.61-27.043-20.61
	c-12.453,0-20.436,6.028-20.436,14.201c0,10.881,15.376,14.772,32.5,20.61c19.848,6.798,42.611,17.298,42.611,41.602
	s-21.016,41.61-52.15,41.61c-28.6,0-48.25-16.139-55.651-40.832l26.083-6.997c2.915,12.247,13.812,23.715,30.736,23.715
	c14.598,0,22.183-7.188,22.183-16.33c0-13.803-18.482-17.107-37.75-23.914c-16.147-5.83-36.384-14.193-36.384-37.917
	c0-21.198,21.016-39.274,49.814-39.274c25.487,0,45.724,15.551,51.561,36.939L361.54,47.493z"/>
<path fill-rule="evenodd" clip-rule="evenodd" fill="#1C1C1A" d="M275.414,6.074v136.108h-25.495L211.2,89.683
	c-12.255-16.719-27.242-38.107-27.433-38.107h-0.199c-0.19,0,0.199,19.641,0.199,46.669v43.937h-27.052V6.074h25.494l39.498,53.086
	c9.34,12.248,26.464,36.551,26.654,36.551h0.199c0.199,0-0.199-22.167-0.199-45.104V6.074H275.414z"/>
<path fill="#1C1C1A" d="M553.751,6.09h-25.487l-56.041,136.107h29.188l38.917-99.041c0.326-0.937,0.54-1.5,0.58-1.5h0.19
	c0.088,0,0.85,2.295,1.93,5.504l37.575,95.038h29.188L553.751,6.09z"/>
<polygon fill="#1C1C1A" points="797.231,116.917 733.288,116.917 733.288,84.06 787.422,84.06 787.422,60.336 733.288,60.336 
	733.288,31.371 797.231,31.371 797.231,6.09 706.236,6.09 706.236,142.197 797.231,142.197 "/>
</svg>
